#!OML:ASF H:\Punching\Project 1\Capture day 1\Session 1\female.ASF
:FULLY-SPECIFIED
:DEGREES
3370
root -1.59472 15.8027 -5.47902 13.1021 -14.0579 -359.157
lowerback -4.51796 -1.0796 2.62747
upperback -6.60313 -1.50544 0.321415
thorax -4.35448 -0.880411 -1.14473
lowerneck -13.5981 6.64315 11.5022
upperneck 38.1626 10.3264 -9.81391
head 17.5506 4.59055 -4.58062
rclavicle 4.78574e-014 -2.38542e-015
rhumerus -36.9783 -2.241 -67.2516
rradius 26.2958
rwrist 9.08526
rhand -15.5636 -8.01301
rfingers 7.12502
rthumb 10.6212 -37.7246
lclavicle 4.78574e-014 -2.38542e-015
lhumerus -43.895 4.74524 78.0453
lradius 42.071
lwrist -16.789
lhand -3.43335 12.0843
lfingers 7.12502
lthumb 22.298 40.8178
rfemur -19.5021 10.4527 19.8785
rtibia 25.6378
rfoot -21.7412 -5.18784
rtoes 3.19175
lfemur -31.8168 -8.63968 -23.7243
ltibia 40.3956
lfoot -19.6369 13.8928
ltoes -6.31789
3371
root -1.61749 15.8 -5.50021 13.2539 -13.2117 -359.183
lowerback -4.68969 -1.09483 2.64747
upperback -6.63782 -1.52974 0.322342
thorax -4.29617 -0.892772 -1.15851
lowerneck -13.6415 6.56303 11.448
upperneck 38.1937 10.159 -9.64665
head 17.5297 4.53817 -4.52478
rclavicle -1.05604e-015 4.77083e-015
rhumerus -36.7842 -2.56608 -66.9114
rradius 26.4235
rwrist 8.56382
rhand -15.7657 -8.08669
rfingers 7.12502
rthumb 10.4262 -37.8082
lclavicle -1.05604e-015 4.77083e-015
lhumerus -43.9612 4.89847 77.9469
lradius 41.53
lwrist -17.0259
lhand -3.30251 12.1148
lfingers 7.12502
lthumb 22.4236 40.8331
rfemur -19.6284 10.0562 20.0964
rtibia 25.716
rfoot -21.8359 -5.49143
rtoes 3.4058
lfemur -31.6996 -8.21009 -24.0723
ltibia 40.6639
lfoot -19.7106 14.2973
ltoes -5.63618
3372
root -1.63942 15.7969 -5.51984 13.4133 -12.3704 -359.215
lowerback -4.86367 -1.11296 2.67035
upperback -6.6798 -1.55783 0.328841
thorax -4.2445 -0.907171 -1.16819
lowerneck -13.6895 6.48056 11.3894
upperneck 38.2246 9.99128 -9.48584
head 17.5107 4.48404 -4.47129
rclavicle 1.70955e-014 1.39149e-014
rhumerus -36.6004 -2.8978 -66.58
rradius 26.5388
rwrist 8.05713
rhand -15.9439 -8.16756
rfingers 7.12502
rthumb 10.2543 -37.8976
lclavicle 1.70955e-014 1.39149e-014
lhumerus -44.0226 5.06949 77.8411
lradius 40.9575
lwrist -17.2176
lhand -3.2248 12.1882
lfingers 7.12502
lthumb 22.4982 40.8976
rfemur -19.7657 9.64978 20.3157
rtibia 25.8024
rfoot -21.9472 -5.77421
rtoes 3.58739
lfemur -31.564 -7.86037 -24.3637
ltibia 40.8424
lfoot -19.7401 14.5235
ltoes -5.06975
3373
root -1.6605 15.793 -5.53759 13.5648 -11.5448 -359.252
lowerback -5.02459 -1.13039 2.69631
upperback -6.72618 -1.5845 0.339819
thorax -4.20479 -0.921038 -1.17469
lowerneck -13.739 6.39199 11.321
upperneck 38.2563 9.81809 -9.32814
head 17.4918 4.42576 -4.41875
rclavicle -5.59082e-015 7.55382e-015
rhumerus -36.4264 -3.2318 -66.2603
rradius 26.6419
rwrist 7.59049
rhand -16.0711 -8.31434
rfingers 7.12502
rthumb 10.1315 -38.0504
lclavicle -5.59082e-015 7.55382e-015
lhumerus -44.0812 5.26792 77.7245
lradius 40.3412
lwrist -17.3816
lhand -3.19443 12.31
lfingers 7.12502
lthumb 22.5274 41.0158
rfemur -19.8979 9.25043 20.5391
rtibia 25.8992
rfoot -22.0709 -6.04797
rtoes 3.73319
lfemur -31.3869 -7.59988 -24.5961
ltibia 40.9244
lfoot -19.7364 14.6314
ltoes -4.6019
3374
root -1.6808 15.7888 -5.55388 13.7049 -10.7354 -359.287
lowerback -5.16987 -1.14583 2.71649
upperback -6.77579 -1.60791 0.349504
thorax -4.17707 -0.933191 -1.17891
lowerneck -13.7877 6.29711 11.2442
upperneck 38.2884 9.63622 -9.16696
head 17.4713 4.36313 -4.36489
rclavicle -1.93691e-014 2.06736e-014
rhumerus -36.2682 -3.57029 -65.9559
rradius 26.731
rwrist 7.17782
rhand -16.1776 -8.47549
rfingers 7.12502
rthumb 10.0288 -38.2165
lclavicle -1.93691e-014 2.06736e-014
lhumerus -44.1335 5.49073 77.5901
lradius 39.6819
lwrist -17.5464
lhand -3.20924 12.4499
lfingers 7.12502
lthumb 22.5131 41.1575
rfemur -20.0255 8.86899 20.7557
rtibia 26.0073
rfoot -22.1986 -6.33104
rtoes 3.86075
lfemur -31.1629 -7.43509 -24.777
ltibia 40.8992
lfoot -19.7046 14.6682
ltoes -4.25983
3375
root -1.70037 15.7843 -5.56859 13.8244 -9.94526 -359.313
lowerback -5.29625 -1.16063 2.72328
upperback -6.8219 -1.62965 0.356756
thorax -4.15585 -0.943957 -1.17783
lowerneck -13.8402 6.19757 11.1577
upperneck 38.3206 9.44701 -8.99972
head 17.4501 4.29671 -4.3079
rclavicle -1.26228e-014 1.90833e-014
rhumerus -36.1168 -3.90458 -65.6777
rradius 26.8003
rwrist 6.80737
rhand -16.2788 -8.64452
rfingers 7.12502
rthumb 9.93119 -38.3903
lclavicle -1.26228e-014 1.90833e-014
lhumerus -44.1787 5.74763 77.4323
lradius 38.9857
lwrist -17.725
lhand -3.27115 12.5843
lfingers 7.12502
lthumb 22.4537 41.299
rfemur -20.1398 8.51084 20.9611
rtibia 26.1297
rfoot -22.3264 -6.63174
rtoes 3.99105
lfemur -30.8812 -7.37293 -24.9103
ltibia 40.7605
lfoot -19.6458 14.6667
ltoes -3.97538
3376
root -1.71909 15.7795 -5.5821 13.9292 -9.18469 -359.331
lowerback -5.40672 -1.17085 2.71808
upperback -6.8656 -1.64465 0.358862
thorax -4.14049 -0.950946 -1.17497
lowerneck -13.8904 6.09438 11.0608
upperneck 38.351 9.25023 -8.82017
head 17.4251 4.22725 -4.24471
rclavicle -1.87106e-014 7.15625e-015
rhumerus -35.9752 -4.23132 -65.4298
rradius 26.8452
rwrist 6.49116
rhand -16.3793 -8.73528
rfingers 7.12502
rthumb 9.83425 -38.4856
lclavicle -1.87106e-014 7.15625e-015
lhumerus -44.231 6.04153 77.2461
lradius 38.281
lwrist -17.9266
lhand -3.36754 12.7072
lfingers 7.12502
lthumb 22.3612 41.4331
rfemur -20.2506 8.18075 21.1525
rtibia 26.2651
rfoot -22.4429 -6.9498
rtoes 4.13628
lfemur -30.545 -7.40861 -24.9972
ltibia 40.5011
lfoot -19.5593 14.6632
ltoes -3.72294
3377
root -1.73672 15.7744 -5.59437 14.0234 -8.46715 -359.344
lowerback -5.5063 -1.17107 2.70696
upperback -6.9052 -1.64606 0.352167
thorax -4.12643 -0.95105 -1.17755
lowerneck -13.9448 5.98665 10.9595
upperneck 38.3784 9.04366 -8.63291
head 17.3982 4.15396 -4.17891
rclavicle 1.53313e-014 -3.18055e-015
rhumerus -35.8405 -4.53688 -65.226
rradius 26.8677
rwrist 6.22042
rhand -16.5148 -8.77567
rfingers 7.12502
rthumb 9.70349 -38.5322
lclavicle 1.53313e-014 -3.18055e-015
lhumerus -44.2781 6.38107 77.0167
lradius 37.5485
lwrist -18.1843
lhand -3.50912 12.776
lfingers 7.12502
lthumb 22.2253 41.5182
rfemur -20.3625 7.87955 21.3289
rtibia 26.411
rfoot -22.5399 -7.27206
rtoes 4.31557
lfemur -30.1533 -7.53164 -25.0413
ltibia 40.1202
lfoot -19.448 14.6904
ltoes -3.47905
3378
root -1.75332 15.7697 -5.60571 14.1112 -7.77955 -359.349
lowerback -5.59961 -1.16694 2.68324
upperback -6.9404 -1.64126 0.34209
thorax -4.11067 -0.947475 -1.17641
lowerneck -14.0061 5.8773 10.854
upperneck 38.402 8.83292 -8.4413
head 17.3706 4.07868 -4.11089
rclavicle -6.06293e-015 -3.97569e-015
rhumerus -35.7111 -4.8142 -65.0612
rradius 26.8795
rwrist 6.01994
rhand -16.6539 -8.83563
rfingers 7.12502
rthumb 9.56933 -38.5983
lclavicle -6.06293e-015 -3.97569e-015
lhumerus -44.3303 6.75775 76.759
lradius 36.8215
lwrist -18.4801
lhand -3.66444 12.8257
lfingers 7.12502
lthumb 22.0762 41.5856
rfemur -20.4755 7.59699 21.4905
rtibia 26.5601
rfoot -22.6138 -7.59677
rtoes 4.54635
lfemur -29.7151 -7.74287 -25.0431
ltibia 39.6199
lfoot -19.2918 14.7491
ltoes -3.20312
